<mxfile host="app.diagrams.net" modified="2021-04-09T01:53:41.086Z" agent="5.0 (Windows NT 10.0; Win64; x64) AppleWebKit/537.36 (KHTML, like Gecko) Chrome/89.0.4389.90 Safari/537.36" etag="bSWMEJWxbtBnv1sQgoZE" version="14.5.8" type="github">
  <diagram id="1_BJ2fNKis6F1G904Jj7" name="第 1 页">
    <mxGraphModel dx="782" dy="1606" grid="1" gridSize="10" guides="1" tooltips="1" connect="1" arrows="1" fold="1" page="1" pageScale="1" pageWidth="827" pageHeight="1169" math="0" shadow="0">
      <root>
        <mxCell id="0" />
        <mxCell id="1" parent="0" />
        <mxCell id="oTicMtK4sgDhnJ6KhUoC-8" value="业务系统" style="shape=umlActor;verticalLabelPosition=bottom;verticalAlign=top;html=1;" parent="1" vertex="1">
          <mxGeometry x="110" y="40" width="30" height="60" as="geometry" />
        </mxCell>
        <mxCell id="oTicMtK4sgDhnJ6KhUoC-10" value="定时任务" style="shape=umlActor;verticalLabelPosition=bottom;verticalAlign=top;html=1;" parent="1" vertex="1">
          <mxGeometry x="90" y="285" width="30" height="60" as="geometry" />
        </mxCell>
        <mxCell id="oTicMtK4sgDhnJ6KhUoC-12" value="支付" style="ellipse;whiteSpace=wrap;html=1;" parent="1" vertex="1">
          <mxGeometry x="330" y="-70" width="140" height="70" as="geometry" />
        </mxCell>
        <mxCell id="oTicMtK4sgDhnJ6KhUoC-13" value="发起退款" style="ellipse;whiteSpace=wrap;html=1;" parent="1" vertex="1">
          <mxGeometry x="330" y="730" width="140" height="70" as="geometry" />
        </mxCell>
        <mxCell id="2iiPye4uNXKvtf0kuF0E-2" style="rounded=0;orthogonalLoop=1;jettySize=auto;html=1;entryX=0;entryY=0.5;entryDx=0;entryDy=0;" edge="1" parent="1" source="oTicMtK4sgDhnJ6KhUoC-14" target="oTicMtK4sgDhnJ6KhUoC-13">
          <mxGeometry relative="1" as="geometry" />
        </mxCell>
        <mxCell id="oTicMtK4sgDhnJ6KhUoC-14" value="管理员&lt;br&gt;业务员" style="shape=umlActor;verticalLabelPosition=bottom;verticalAlign=top;html=1;" parent="1" vertex="1">
          <mxGeometry x="60" y="510" width="30" height="60" as="geometry" />
        </mxCell>
        <mxCell id="oTicMtK4sgDhnJ6KhUoC-16" value="" style="endArrow=open;endFill=1;endSize=12;html=1;entryX=0;entryY=0.5;entryDx=0;entryDy=0;" parent="1" target="oTicMtK4sgDhnJ6KhUoC-12" edge="1">
          <mxGeometry width="160" relative="1" as="geometry">
            <mxPoint x="130" y="80" as="sourcePoint" />
            <mxPoint x="290" y="80" as="targetPoint" />
          </mxGeometry>
        </mxCell>
        <mxCell id="oTicMtK4sgDhnJ6KhUoC-18" value="发送激励" style="ellipse;whiteSpace=wrap;html=1;" parent="1" vertex="1">
          <mxGeometry x="330" y="70" width="140" height="70" as="geometry" />
        </mxCell>
        <mxCell id="oTicMtK4sgDhnJ6KhUoC-20" value="" style="endArrow=open;endFill=1;endSize=12;html=1;entryX=0.029;entryY=0.371;entryDx=0;entryDy=0;entryPerimeter=0;" parent="1" target="oTicMtK4sgDhnJ6KhUoC-18" edge="1">
          <mxGeometry width="160" relative="1" as="geometry">
            <mxPoint x="130" y="80" as="sourcePoint" />
            <mxPoint x="290" y="80" as="targetPoint" />
          </mxGeometry>
        </mxCell>
        <mxCell id="oTicMtK4sgDhnJ6KhUoC-21" value="定时检查超时未确定的订单" style="ellipse;whiteSpace=wrap;html=1;" parent="1" vertex="1">
          <mxGeometry x="330" y="280" width="140" height="70" as="geometry" />
        </mxCell>
        <mxCell id="oTicMtK4sgDhnJ6KhUoC-22" value="" style="endArrow=open;endFill=1;endSize=12;html=1;entryX=0;entryY=0.5;entryDx=0;entryDy=0;" parent="1" source="oTicMtK4sgDhnJ6KhUoC-10" target="oTicMtK4sgDhnJ6KhUoC-21" edge="1">
          <mxGeometry width="160" relative="1" as="geometry">
            <mxPoint x="130" y="200" as="sourcePoint" />
            <mxPoint x="290" y="200" as="targetPoint" />
          </mxGeometry>
        </mxCell>
        <mxCell id="oTicMtK4sgDhnJ6KhUoC-23" value="项目绑定/解绑" style="ellipse;whiteSpace=wrap;html=1;" parent="1" vertex="1">
          <mxGeometry x="330" y="410" width="140" height="70" as="geometry" />
        </mxCell>
        <mxCell id="oTicMtK4sgDhnJ6KhUoC-25" value="" style="endArrow=open;endFill=1;endSize=12;html=1;exitX=0.422;exitY=0.339;exitDx=0;exitDy=0;exitPerimeter=0;" parent="1" target="oTicMtK4sgDhnJ6KhUoC-23" edge="1" source="oTicMtK4sgDhnJ6KhUoC-14">
          <mxGeometry width="160" relative="1" as="geometry">
            <mxPoint x="120" y="440" as="sourcePoint" />
            <mxPoint x="280" y="440" as="targetPoint" />
          </mxGeometry>
        </mxCell>
        <mxCell id="oTicMtK4sgDhnJ6KhUoC-26" value="查询流水" style="ellipse;whiteSpace=wrap;html=1;" parent="1" vertex="1">
          <mxGeometry x="330" y="510" width="140" height="70" as="geometry" />
        </mxCell>
        <mxCell id="oTicMtK4sgDhnJ6KhUoC-27" value="" style="endArrow=open;endFill=1;endSize=12;html=1;entryX=0.01;entryY=0.405;entryDx=0;entryDy=0;entryPerimeter=0;exitX=0.511;exitY=0.394;exitDx=0;exitDy=0;exitPerimeter=0;" parent="1" target="oTicMtK4sgDhnJ6KhUoC-26" edge="1" source="oTicMtK4sgDhnJ6KhUoC-14">
          <mxGeometry width="160" relative="1" as="geometry">
            <mxPoint x="120" y="450" as="sourcePoint" />
            <mxPoint x="280" y="450" as="targetPoint" />
          </mxGeometry>
        </mxCell>
        <mxCell id="oTicMtK4sgDhnJ6KhUoC-33" style="rounded=0;orthogonalLoop=1;jettySize=auto;html=1;entryX=0;entryY=0.5;entryDx=0;entryDy=0;" parent="1" source="oTicMtK4sgDhnJ6KhUoC-28" target="oTicMtK4sgDhnJ6KhUoC-31" edge="1">
          <mxGeometry relative="1" as="geometry" />
        </mxCell>
        <mxCell id="oTicMtK4sgDhnJ6KhUoC-28" value="商户管理" style="ellipse;whiteSpace=wrap;html=1;" parent="1" vertex="1">
          <mxGeometry x="330" y="610" width="140" height="70" as="geometry" />
        </mxCell>
        <mxCell id="oTicMtK4sgDhnJ6KhUoC-30" value="" style="endArrow=open;endFill=1;endSize=12;html=1;entryX=0.01;entryY=0.31;entryDx=0;entryDy=0;entryPerimeter=0;exitX=0.5;exitY=0.5;exitDx=0;exitDy=0;exitPerimeter=0;" parent="1" source="oTicMtK4sgDhnJ6KhUoC-14" target="oTicMtK4sgDhnJ6KhUoC-28" edge="1">
          <mxGeometry width="160" relative="1" as="geometry">
            <mxPoint x="110" y="450" as="sourcePoint" />
            <mxPoint x="270" y="450" as="targetPoint" />
          </mxGeometry>
        </mxCell>
        <mxCell id="oTicMtK4sgDhnJ6KhUoC-31" value="证书管理" style="ellipse;whiteSpace=wrap;html=1;" parent="1" vertex="1">
          <mxGeometry x="570" y="610" width="140" height="70" as="geometry" />
        </mxCell>
      </root>
    </mxGraphModel>
  </diagram>
</mxfile>
